<?xml version="1.0" encoding="UTF-8"?>
<svg id="uuid-a751379b-4b5b-415e-b3a4-bf3e3a265d6f" data-name="Layer 1" xmlns="http://www.w3.org/2000/svg" width="16" height="16" viewBox="0 0 16 16">
  <g>
    <path d="M.75,15.25V.75h14.5v5.5h-7.2548828125c-.96484375,0-1.75.78515625-1.75,1.75v7.25H.75Z" fill="#82ccff" stroke-width="0"/>
    <path d="M15,1v5h-7.00506591796875c-1.102798461914062,0-2,.897201538085938-2,2v7H1V1h14M15.5.5H.5v15h5.99493408203125v-7.5c0-.82843017578125.67156982421875-1.5,1.5-1.5h7.50506591796875V.5h0Z" fill="#3f93cc" stroke-width="0"/>
  </g>
  <circle cx="9.0430533234412" cy="4.185429082421251" r="2" fill="#fefecf" stroke="#fff" stroke-width=".25"/>
  <path d="M15.5,6.5c-3.369462579121318-3.791704809576913-4.088570222573253-4.105110360455001-6.4569466765588-2.168028171003243-3.19252292697638,2.611147096506102-3.254419821509146,3.730125357375073-5.081939659286945,3.039728974214086-2.682113800778097-1.013242991404695-3.461113663743163.894037933594518-3.461113663743163.894037933594518l-.000000000411092,7.234261263194639h5.994935989721853v-7.5c0-.828427124745758.671572875253332-1.5,1.5-1.5h7.505064010278147Z" fill="#3f93cc" stroke-width="0"/>
  <g>
    <g>
      <path d="M8,7.5h1.25v3.25h4.5v-3.25h1.25c.276142374914343,0,.5.223857625085657.5.5v7c0,.276142374914343-.223857625085657.5-.5.5h-1.25v-2.25h-4.5v2.25h-.75l-1-1v-6.5c0-.276142374914343.223857625085657-.5.5-.5Z" fill="#818181" fill-rule="evenodd" stroke="#3f4247"/>
      <rect x="9.25" y="7.5" width="4.5" height="3.25" fill="#f3f3f3" stroke="#3f4247"/>
      <path d="M9.25,13.25v2.25h4.5v-2.25h-4.5Z" fill="#f3f3f3" fill-rule="evenodd" stroke="#3f4247"/>
    </g>
    <rect x="9.75" y="13.75" width=".5" height="1.25" fill="#333" stroke-width="0"/>
  </g>
</svg>