<?xml version="1.0" encoding="UTF-8"?>
<svg id="uuid-dd913872-21da-436c-9067-68edd05afa82" data-name="Layer 1" xmlns="http://www.w3.org/2000/svg" width="32" height="32" viewBox="0 0 32 32">
  <g>
    <path d="M1.5,30.5V1.5h29v12.5h-14.009765625c-1.37890625,0-2.5,1.12158203125-2.5,2.5v14H1.5Z" fill="#82ccff" stroke-width="0"/>
    <path d="M30,2v11.5h-13.510116577148438c-1.654212951660156,0-3,1.345790863037109-3,3v13.5H2V2h28M31,1H1v30h13.489883422851562v-14.5c0-1.104568481445312.895416259765625-2,2-2h14.510116577148438V1h0Z" fill="#3f93cc" stroke-width="0"/>
  </g>
  <circle cx="18.086106646882399" cy="9.370858164842502" r="4" fill="#fefecf" stroke="#fff"/>
  <path d="M31,14.5c-6.738925158240818-7.583409619153826-8.177140445146506-7.710220720910002-12.913893353117601-3.836056342008305-6.385045853952761,5.222294193014022-6.50883964302011,7.460250714751965-10.16387931857389,6.079457948431809-5.364227601556195-2.026485982811209-6.922227327486326,1.788075867185398-6.922227327486326,1.788075867185398l-.000000000822183,12.468522526391098h13.489871979443706v-14.549623092358161c0-1.08499873215078.86510511555025-1.972114563106516,1.949761489067896-1.999368923439761l14.560366531488398.048992015797921Z" fill="#3f93cc" stroke-width="0"/>
  <g>
    <g>
      <path d="M16.5,15.5h2.5v6.5h9v-6.5h2.5c.552284749830505,0,1,.447715250169495,1,1v14c0,.552284749830505-.447715250169495,1-1,1h-2.5v-4.5h-9v4.5h-1.5l-2-2v-13c0-.552284749830505.447715250169495-1,1-1Z" fill="#818181" fill-rule="evenodd" stroke="#3f4247"/>
      <rect x="19" y="15.5" width="9" height="6.5" fill="#f3f3f3" stroke="#3f4247"/>
      <path d="M19,27v4.5h9v-4.5h-9Z" fill="#f3f3f3" fill-rule="evenodd" stroke="#3f4247"/>
    </g>
    <rect x="20" y="28" width="1" height="2.5" fill="#333" stroke-width="0"/>
  </g>
</svg>