<?xml version="1.0" encoding="UTF-8"?>
<svg id="uuid-302fb867-c50e-4311-9407-704edaf6ff1f" data-name="Layer 1" xmlns="http://www.w3.org/2000/svg" width="64" height="64" viewBox="0 0 64 64">
  <g>
    <path d="M3,61V3h58v26h-27.5205078125c-2.48095703125,0-4.49951171875,2.0185546875-4.49951171875,4.5v27.5H3Z" fill="#82ccff" stroke-width="0"/>
    <path d="M60,4v24h-26.520248413085938c-3.03271484375,0-5.500001907348633,2.467288970947266-5.500001907348633,5.5v26.5H4V4h56M62,2H2v60h27.97974967956543v-28.5c0-1.932998657226562,1.566999435424805-3.5,3.500001907348633-3.5h28.520248413085938V2h0Z" fill="#3f93cc" stroke-width="0"/>
  </g>
  <circle cx="36.172213293764798" cy="18.741716329684095" r="8" fill="#fefecf" stroke="#fff"/>
  <path d="M33.479743958887411,30h28.520256041112589c-13.477850316481636-15.166819238309472-16.354280890291193-16.420441441819094-25.827786706235202-8.672112684015701-12.770091707905522,10.444588386025316-13.01767928604113,14.92050142950302-20.32775863714869,12.158915896862709-10.728455203113299-4.0529719656206-13.844454654971742,3.576151734370796-13.844454654971742,3.576151734370796l-.000000001644366,24.937045052782196h27.979743958887411v-28.5c0-1.932996624407679,1.567003375592321-3.5,3.5-3.5Z" fill="#3f93cc" stroke-width="0"/>
  <g>
    <g>
      <path d="M33.5,31.5h5v13h18v-13h5c1.104569499661011,0,2,.89543050033808,2,2v28c0,1.104569499661011-.895430500338989,2-2,2h-5v-9h-18v9h-3l-4-4v-26c0-1.10456949966192.89543050033808-2,2-2Z" fill="#818181" fill-rule="evenodd" stroke="#3f4247"/>
      <rect x="38.5" y="31.5" width="18" height="13" fill="#f3f3f3" stroke="#3f4247"/>
      <path d="M38.5,54.5v9h18v-9h-18Z" fill="#f3f3f3" fill-rule="evenodd" stroke="#3f4247"/>
    </g>
    <rect x="40.5" y="56.5" width="2" height="5" fill="#333" stroke-width="0"/>
  </g>
</svg>